<svg xmlns="http://www.w3.org/2000/svg" viewBox="0 0 200 280">
  <defs>
    <linearGradient id="bg" x1="0" y1="0" x2="0" y2="1">
      <stop offset="0" stop-color="#ffffff"/>
      <stop offset="1" stop-color="#e8ecf2"/>
    </linearGradient>
  </defs>
  <rect x="8" y="8" width="184" height="264" rx="16" fill="url(#bg)" stroke="#2a3140" stroke-width="3"/>
  <path d="M24 8 H176 Q192 8 192 24 V46 H8 V24 Q8 8 24 8 Z" fill="#e74c3c"/>
  <rect x="8" y="46" width="184" height="6" fill="#c0392b"/>
  <rect x="14" y="58" width="172" height="180" rx="10" fill="none" stroke="#c8cfdb" stroke-width="1.5" stroke-dasharray="5 4"/>
  <g transform="translate(100,130) scale(1.5)">
    <g transform="translate(-50,-50)"><g fill="none" stroke="#1c2331" stroke-width="5" stroke-linecap="round" stroke-linejoin="round">
  <circle cx="38" cy="22" r="7"/>
  <circle cx="62" cy="22" r="7"/>
  <circle cx="50" cy="38" r="16"/>
  <path d="M36 52 C34 52 30 60 30 68 C30 76 38 80 50 80 C62 80 70 76 70 68 C70 60 66 52 64 52"/>
  <path d="M50 38 L50 50 M44 44 L56 44"/>
</g></g>
  </g>
  <text x="100" y="254" text-anchor="middle" font-family="'Segoe UI', system-ui, sans-serif" font-size="15" font-weight="700" fill="#1a1f2b">Bicho de pelúcia</text>
</svg>
