<svg xmlns="http://www.w3.org/2000/svg" viewBox="0 0 200 280">
  <defs>
    <linearGradient id="bg" x1="0" y1="0" x2="0" y2="1">
      <stop offset="0" stop-color="#ffffff"/>
      <stop offset="1" stop-color="#e8ecf2"/>
    </linearGradient>
  </defs>
  <rect x="8" y="8" width="184" height="264" rx="16" fill="url(#bg)" stroke="#2a3140" stroke-width="3"/>
  <path d="M24 8 H176 Q192 8 192 24 V46 H8 V24 Q8 8 24 8 Z" fill="#3a86ff"/>
  <rect x="8" y="46" width="184" height="6" fill="#2f6fe0"/>
  <rect x="14" y="58" width="172" height="180" rx="10" fill="none" stroke="#c8cfdb" stroke-width="1.5" stroke-dasharray="5 4"/>
  <g transform="translate(100,130) scale(1.5)">
    <g transform="translate(-50,-50)"><g fill="none" stroke="#1c2331" stroke-width="5" stroke-linecap="round" stroke-linejoin="round"><path d="M50 14 L50 48"/><path d="M50 14 C42 24 42 38 50 48 C58 38 58 24 50 14 Z"/><path d="M38 48 L62 48"/><path d="M44 48 L44 74 L56 74 L56 48 Z"/><circle cx="50" cy="82" r="6"/></g></g>
  </g>
  <text x="100" y="254" text-anchor="middle" font-family="'Segoe UI', system-ui, sans-serif" font-size="15" font-weight="700" fill="#1a1f2b">Adaga</text>
</svg>
