<svg xmlns="http://www.w3.org/2000/svg" viewBox="0 0 200 280">
  <defs>
    <linearGradient id="bg" x1="0" y1="0" x2="0" y2="1">
      <stop offset="0" stop-color="#ffffff"/>
      <stop offset="1" stop-color="#e8ecf2"/>
    </linearGradient>
  </defs>
  <rect x="8" y="8" width="184" height="264" rx="16" fill="url(#bg)" stroke="#2a3140" stroke-width="3"/>
  <path d="M24 8 H176 Q192 8 192 24 V46 H8 V24 Q8 8 24 8 Z" fill="#3a86ff"/>
  <rect x="8" y="46" width="184" height="6" fill="#2f6fe0"/>
  <rect x="14" y="58" width="172" height="180" rx="10" fill="none" stroke="#c8cfdb" stroke-width="1.5" stroke-dasharray="5 4"/>
  <g transform="translate(100,130) scale(1.5)">
    <g transform="translate(-50,-50)"><g fill="none" stroke="#1c2331" stroke-width="5" stroke-linecap="round" stroke-linejoin="round"><path d="M30 38 L22 14 L42 26 L50 18 L58 26 L78 14 L70 38 C70 22 30 22 30 38 Z"/><path d="M30 38 C30 22 70 22 70 38 L70 58 C70 72 60 78 50 78 C40 78 30 72 30 58 Z"/><path d="M38 52 L62 52 L62 66 C62 72 55 76 50 76 C45 76 38 72 38 66 Z"/><circle cx="42" cy="40" r="3"/><circle cx="58" cy="40" r="3"/><path d="M42 58 L42 62 M46 58 L46 62 M50 58 L50 62 M54 58 L54 62 M58 58 L58 62"/></g></g>
  </g>
  <text x="100" y="254" text-anchor="middle" font-family="'Segoe UI', system-ui, sans-serif" font-size="15" font-weight="700" fill="#1a1f2b">Cachorro raivoso</text>
</svg>
